<?xml version="1.0" encoding="UTF-8"?>
<svg id="Layer_1" data-name="Layer 1" xmlns="http://www.w3.org/2000/svg" viewBox="0 0 22.52 26.98">
  <defs>
    <style>
      .cls-1 {
        fill: #8b8676;
      }

      .cls-2 {
        fill: none;
        stroke: #8b8676;
        stroke-linecap: round;
        stroke-linejoin: round;
        stroke-width: 1.38px;
      }
    </style>
  </defs>
  <path class="cls-1" d="M17.35,3.54c-.07.5-.53.85-1.03.78-.5-.07-.85-.53-.78-1.03.07-.5.53-.85,1.03-.78.5.07.85.53.78,1.03Z"/>
  <path class="cls-2" d="M11.59,9.55s1.89-1.18,3.99-1.44c2.61-.33-6.05,4.98-6.63,5.34-.58.36,9.92-4.84,9.28-4.16-.36.38-5.71,4.28-11.32,9.56-.24.23-.48.45-.72.68-.21.2-.42.4-.63.61-.17.17-.34.34-.51.5-.22.22-.43.43-.65.65-.23.24-.47.47-.7.71-.19.19-.37.38-.55.58s-.38.41-.57.61c-.15.17-.31.33-.46.5-.18.2-.36.4-.54.6-.17.19-.33.38-.5.57"/>
  <path class="cls-2" d="M.86,11.13c.2-.06.4-.13.59-.2s.37-.13.55-.2c.16-.06.32-.12.48-.18.18-.07.36-.14.54-.21.19-.08.38-.16.57-.24.21-.09.41-.18.6-.27.35-.17.69-.34,1.02-.51.44-.24.85-.48,1.24-.73.26-.17.51-.33.74-.5,2.26-1.62,3.59-3.41,4.62-5.16,2.69-4.52-3.79-.01.08,2.63,0,0-3.97,5.24-.71,4.16,1.94-.65,4.04-4.04,4.04-4.04"/>
  <path class="cls-2" d="M11.31,18.25s2.23-4.25,5.28-5.18c3.06-.93-1.63,4.22-2.17,4.36-.54.13,3.51-.59,2.3,1.97-1.64,3.45-4.88,6.69-6.51,6.7-1.92-.07.36-5.17,8.27-7.84.38-.13.78-.25,1.19-.37.31-.09.64-.18.96-.26s.68-.16,1.02-.23"/>
</svg>