<svg width="12" height="12" viewBox="0 0 12 12" fill="none" xmlns="http://www.w3.org/2000/svg">
<path d="M0.5 5.5C0.223858 5.5 0 5.72386 0 6C0 6.27614 0.223858 6.5 0.5 6.5V5.5ZM11.8536 6.35355C12.0488 6.15829 12.0488 5.84171 11.8536 5.64645L8.67157 2.46447C8.47631 2.2692 8.15973 2.2692 7.96447 2.46447C7.7692 2.65973 7.7692 2.97631 7.96447 3.17157L10.7929 6L7.96447 8.82843C7.7692 9.02369 7.7692 9.34027 7.96447 9.53553C8.15973 9.7308 8.47631 9.7308 8.67157 9.53553L11.8536 6.35355ZM0.5 6V6.5H11.5V6V5.5H0.5V6Z" fill="#E63223"/>
</svg>
